<svg xmlns="http://www.w3.org/2000/svg" width="1040" height="760" font-family="sans-serif" font-size="11"><defs><marker id="a" markerWidth="8" markerHeight="8" refX="7" refY="4" orient="auto"><path d="M0,0 L8,4 L0,8 z" fill="#333"/></marker></defs><rect width="1040" height="760" fill="#fff"/><rect x="20" y="150" width="520" height="330" rx="8" fill="#f5f5f5" stroke="#666666" stroke-dasharray="5,4"/><text x="280.0" y="166" text-anchor="middle" font-weight="bold">Resource group rg-shared-prf2026 (FOURNI, lecture seule) : cluster aks-nonprod-prf2026</text><rect x="40" y="230" width="480" height="230" rx="8" fill="#e8f0fe" stroke="#4a6fa5"/><text x="280.0" y="246" text-anchor="middle" font-weight="bold">Namespace mohamed-saidi (créé par Terraform, NetworkPolicies)</text><rect x="60" y="180" width="440" height="40" rx="8" fill="#ffffff" stroke="#666666" stroke-dasharray="5,4"/><text x="280.0" y="193.0" text-anchor="middle">Ingress managé webapprouting (app-routing-system)</text><text x="280.0" y="207.0" text-anchor="middle">IP dynamique</text><rect x="70" y="275" width="190" height="90" rx="8" fill="#ffffff" stroke="#4a6fa5"/><text x="165.0" y="306.0" text-anchor="middle">frontend (nginx :8080)</text><text x="165.0" y="320.0" text-anchor="middle">Service + Ingress</text><text x="165.0" y="334.0" text-anchor="middle">proxy /api/</text><rect x="300" y="275" width="190" height="90" rx="8" fill="#ffffff" stroke="#4a6fa5"/><text x="395.0" y="306.0" text-anchor="middle">backend Spring Boot (:8080)</text><text x="395.0" y="320.0" text-anchor="middle">Service ClusterIP</text><text x="395.0" y="334.0" text-anchor="middle">jamais exposé</text><rect x="60" y="385" width="440" height="50" rx="8" fill="#fff8e1" stroke="#b8860b"/><text x="280.0" y="410.0" text-anchor="middle">default-deny-ingress + allow-ingress-to-frontend (8080) + allow-frontend-to-backend (8080)</text><rect x="150" y="20" width="260" height="60" rx="8" fill="#ffffff" stroke="#333333"/><text x="280.0" y="43.0" text-anchor="middle">Internet</text><text x="280.0" y="57.0" text-anchor="middle">mohamed-saidi.{ingress_ip}.nip.io</text><rect x="600" y="150" width="420" height="470" rx="8" fill="#eef7ee" stroke="#3c763d"/><text x="810.0" y="166" text-anchor="middle" font-weight="bold">Resource group msaidiRG (dédié, Terraform)</text><rect x="620" y="190" width="180" height="80" rx="8" fill="#ffffff" stroke="#3c763d"/><text x="710.0" y="216.0" text-anchor="middle">PostgreSQL Flexible Server</text><text x="710.0" y="230.0" text-anchor="middle">psql-mohamed-saidi (appdb)</text><text x="710.0" y="244.0" text-anchor="middle">firewall IP egress</text><rect x="820" y="190" width="180" height="80" rx="8" fill="#ffffff" stroke="#3c763d"/><text x="910.0" y="223.0" text-anchor="middle">Azure Managed Redis</text><text x="910.0" y="237.0" text-anchor="middle">redis-mohamed-saidi</text><rect x="620" y="300" width="180" height="90" rx="8" fill="#ffffff" stroke="#3c763d"/><text x="710.0" y="331.0" text-anchor="middle">Key Vault kv-mohamed-saidi</text><text x="710.0" y="345.0" text-anchor="middle">RBAC, ACL Deny, IP + subnet</text><text x="710.0" y="359.0" text-anchor="middle">secrets pg/redis</text><rect x="820" y="300" width="180" height="90" rx="8" fill="#ffffff" stroke="#3c763d"/><text x="910.0" y="331.0" text-anchor="middle">Storage account</text><text x="910.0" y="345.0" text-anchor="middle">stmohamedsaidi</text><text x="910.0" y="359.0" text-anchor="middle">app-data (ACL IP + subnet)</text><rect x="620" y="420" width="380" height="70" rx="8" fill="#ffffff" stroke="#3c763d"/><text x="810.0" y="441.0" text-anchor="middle">ACR acrmohamedsaidi (Basic)</text><text x="810.0" y="455.0" text-anchor="middle">AcrPull : identité kubelet</text><text x="810.0" y="469.0" text-anchor="middle">AcrPush : CI</text><rect x="620" y="520" width="380" height="50" rx="8" fill="#ffffff" stroke="#999999" stroke-dasharray="5,4"/><text x="810.0" y="545.0" text-anchor="middle">Storage du state Terraform (hors Terraform, écart assumé)</text><rect x="600" y="660" width="420" height="80" rx="8" fill="#fdecea" stroke="#a94442"/><text x="810.0" y="686.0" text-anchor="middle">GitHub Actions (OIDC)</text><text x="810.0" y="700.0" text-anchor="middle">3 dépôts : terraform, backend, frontend</text><text x="810.0" y="714.0" text-anchor="middle">JIT firewall, lecture KV, build, push, deploy</text><line x1="280.0" y1="50.0" x2="280.0" y2="200.0" stroke="#333" marker-end="url(#a)" opacity="0.7"/><text x="280.0" y="125.0" font-size="9" fill="#a00">HTTP</text><line x1="280.0" y1="200.0" x2="165.0" y2="320.0" stroke="#333" marker-end="url(#a)" opacity="0.7"/><text x="222.5" y="260.0" font-size="9" fill="#a00">8080</text><line x1="165.0" y1="320.0" x2="395.0" y2="320.0" stroke="#333" marker-end="url(#a)" opacity="0.7"/><text x="280.0" y="320.0" font-size="9" fill="#a00">/api/ :8080</text><line x1="395.0" y1="320.0" x2="710.0" y2="230.0" stroke="#333" marker-end="url(#a)" opacity="0.7"/><text x="552.5" y="275.0" font-size="9" fill="#a00">IP egress</text><line x1="395.0" y1="320.0" x2="910.0" y2="230.0" stroke="#333" marker-end="url(#a)" opacity="0.7"/><text x="652.5" y="275.0" font-size="9" fill="#a00">IP egress</text><line x1="395.0" y1="320.0" x2="710.0" y2="345.0" stroke="#333" marker-end="url(#a)" opacity="0.7"/><text x="552.5" y="332.5" font-size="9" fill="#a00">IP egress</text><line x1="395.0" y1="320.0" x2="910.0" y2="345.0" stroke="#333" marker-end="url(#a)" opacity="0.7"/><text x="652.5" y="332.5" font-size="9" fill="#a00">IP egress</text><line x1="810.0" y1="455.0" x2="280.0" y2="345.0" stroke="#333" marker-end="url(#a)" opacity="0.7"/><text x="545.0" y="400.0" font-size="9" fill="#a00">pull (kubelet)</text><line x1="810.0" y1="700.0" x2="810.0" y2="455.0" stroke="#333" marker-end="url(#a)" opacity="0.7"/><text x="810.0" y="577.5" font-size="9" fill="#a00">push</text><line x1="810.0" y1="700.0" x2="710.0" y2="345.0" stroke="#333" marker-end="url(#a)" opacity="0.7"/><text x="760.0" y="522.5" font-size="9" fill="#a00">lecture secrets</text><line x1="810.0" y1="700.0" x2="280.0" y2="345.0" stroke="#333" marker-end="url(#a)" opacity="0.7"/><text x="545.0" y="522.5" font-size="9" fill="#a00">kubectl</text><line x1="810.0" y1="700.0" x2="810.0" y2="545.0" stroke="#333" marker-end="url(#a)" opacity="0.7"/><text x="810.0" y="622.5" font-size="9" fill="#a00">state</text></svg>
